<svg width="24" height="31" viewBox="0 0 24 31" fill="none" xmlns="http://www.w3.org/2000/svg">
<path d="M11.9999 18.2499C15.3089 18.2499 17.9999 15.5589 17.9999 12.2499C17.9999 8.94097 15.3089 6.25 11.9999 6.25C8.69097 6.25 6 8.94097 6 12.2499C6 15.5589 8.69097 18.2499 11.9999 18.2499ZM11.9999 9.24997C13.6544 9.24997 14.9999 10.5955 14.9999 12.2499C14.9999 13.9044 13.6544 15.2499 11.9999 15.2499C10.3455 15.2499 8.99997 13.9044 8.99997 12.2499C8.99997 10.5955 10.3455 9.24997 11.9999 9.24997Z" fill="#8EC2F2"/>
<path d="M11.13 29.9712C11.3839 30.1525 11.688 30.25 12 30.25C12.312 30.25 12.6161 30.1525 12.87 29.9712C13.326 29.6487 24.0434 21.9102 23.9999 12.2501C23.9999 5.63354 18.6164 0.25 12 0.25C5.38357 0.25 0.000132055 5.63354 0.000132055 12.2426C-0.0433675 21.9102 10.674 29.6487 11.13 29.9712ZM12 3.25002C16.9634 3.25002 20.9999 7.28656 20.9999 12.2576C21.0314 18.9147 14.418 24.8922 12 26.8527C9.58353 24.8907 2.9686 18.9116 3.0001 12.2501C3.0001 7.28656 7.03655 3.25002 12 3.25002Z" fill="#8EC2F2"/>
</svg>
