<svg width="24" height="25" viewBox="0 0 24 25" fill="none" xmlns="http://www.w3.org/2000/svg">
<path d="M23.7229 1.20455C23.5878 1.07023 23.4171 0.977232 23.2308 0.93649C23.0446 0.895748 22.8506 0.908956 22.6717 0.974561L0.646102 8.97415C0.45615 9.04611 0.292612 9.17409 0.177209 9.34108C0.0618062 9.50808 0 9.70619 0 9.9091C0 10.112 0.0618062 10.3101 0.177209 10.4771C0.292612 10.6441 0.45615 10.7721 0.646102 10.8441L10.2573 14.6839L14.1017 24.2834C14.1739 24.4647 14.2978 24.6211 14.4579 24.733C14.618 24.8449 14.8074 24.9076 15.0028 24.9133C15.2051 24.9092 15.4014 24.8439 15.5658 24.7261C15.7302 24.6083 15.8551 24.4435 15.9238 24.2534L23.9331 2.2545C24.0013 2.07758 24.0178 1.88494 23.9806 1.69905C23.9433 1.51315 23.854 1.34165 23.7229 1.20455V1.20455ZM15.0028 21.1135L12.2095 14.1139L17.0051 9.32413L15.5934 7.9142L10.7578 12.744L3.78975 9.9141L21.3401 3.58443L15.0028 21.1135Z" fill="#8EC2F2"/>
</svg>
