<svg width="57" height="72" viewBox="0 0 57 72" fill="none" xmlns="http://www.w3.org/2000/svg">
<path d="M28.5 42.3944C36.4968 42.3944 43 36.0269 43 28.1972C43 20.3674 36.4968 14 28.5 14C20.5032 14 14 20.3674 14 28.1972C14 36.0269 20.5032 42.3944 28.5 42.3944ZM28.5 21.0986C32.4984 21.0986 35.75 24.2823 35.75 28.1972C35.75 32.1121 32.4984 35.2958 28.5 35.2958C24.5016 35.2958 21.25 32.1121 21.25 28.1972C21.25 24.2823 24.5016 21.0986 28.5 21.0986Z" fill="#0D5C63"/>
<path d="M26.4338 71.331C27.0367 71.7661 27.7591 72 28.5 72C29.2409 72 29.9633 71.7661 30.5662 71.331C31.6492 70.557 57.103 51.9844 56.9997 28.8002C56.9997 12.9205 44.214 0 28.5 0C12.786 0 0.000313631 12.9205 0.000313631 28.7822C-0.102998 51.9844 25.3508 70.557 26.4338 71.331ZM28.5 7.20006C40.2882 7.20006 49.8748 16.8877 49.8748 28.8182C49.9496 44.7952 34.2427 59.1413 28.5 63.8465C22.7609 59.1377 7.05042 44.788 7.12524 28.8002C7.12524 16.8877 16.7118 7.20006 28.5 7.20006Z" fill="#0D5C63"/>
</svg>
