<svg width="24" height="25" viewBox="0 0 24 25" fill="none" xmlns="http://www.w3.org/2000/svg">
<path d="M18.5786 13.6227C18.4614 13.5053 18.3222 13.4122 18.169 13.3487C18.0158 13.2852 17.8516 13.2525 17.6858 13.2525C17.5199 13.2525 17.3557 13.2852 17.2025 13.3487C17.0493 13.4122 16.9101 13.5053 16.793 13.6227L14.7801 15.6355C13.8469 15.3577 12.1055 14.7263 11.0018 13.6227C9.89808 12.5191 9.26668 10.7777 8.98887 9.84456L11.0018 7.83174C11.1191 7.71458 11.2123 7.57542 11.2758 7.42223C11.3393 7.26904 11.372 7.10482 11.372 6.93898C11.372 6.77314 11.3393 6.60893 11.2758 6.45574C11.2123 6.30255 11.1191 6.16339 11.0018 6.04622L5.95058 0.995238C5.8334 0.877872 5.69424 0.784759 5.54104 0.72123C5.38785 0.6577 5.22363 0.625 5.05778 0.625C4.89193 0.625 4.72771 0.6577 4.57451 0.72123C4.42132 0.784759 4.28215 0.877872 4.16498 0.995238L0.740273 4.41981C0.26041 4.89965 -0.00982893 5.5588 0.000273452 6.23185C0.0293178 8.03 0.505393 14.2755 5.42778 19.1977C10.3502 24.1199 16.596 24.5947 18.3954 24.625H18.4308C19.0976 24.625 19.7277 24.3623 20.205 23.885L23.6297 20.4605C23.7471 20.3433 23.8402 20.2041 23.9038 20.0509C23.9673 19.8978 24 19.7335 24 19.5677C24 19.4019 23.9673 19.2376 23.9038 19.0845C23.8402 18.9313 23.7471 18.7921 23.6297 18.6749L18.5786 13.6227ZM18.4182 22.0982C16.8422 22.0717 11.4501 21.6487 7.21337 17.4109C2.9628 13.1605 2.55112 7.74967 2.52587 6.20533L5.05778 3.67352L8.32337 6.93898L6.69058 8.57171C6.54215 8.72002 6.43302 8.90298 6.37305 9.10405C6.31308 9.30511 6.30416 9.51796 6.3471 9.72334C6.3774 9.86855 7.11866 13.3121 9.21491 15.4082C11.3112 17.5044 14.7548 18.2456 14.9 18.2759C15.1053 18.3201 15.3184 18.3119 15.5196 18.2521C15.7209 18.1923 15.9039 18.0828 16.0517 17.9337L17.6858 16.301L20.9514 19.5664L18.4182 22.0982V22.0982Z" fill="white"/>
</svg>
